<svg xmlns="http://www.w3.org/2000/svg" version="1.1" xmlns:xlink="http://www.w3.org/1999/xlink" xmlns:svgjs="http://svgjs.dev/svgjs" width="1440" height="560" preserveAspectRatio="none" viewBox="0 0 1440 560"><g mask="url(&quot;#SvgjsMask1018&quot;)" fill="none"><rect width="1440" height="560" x="0" y="0" fill="#0e2a47"></rect><path d="M1332.3803955460417 316.3995440605602L1419.9303347167593 228.84960488984257 1332.3803955460417 141.29966571912502 1244.830456375324 228.8496048898426z" fill="rgba(28, 83, 142, 0.4)" class="triangle-float3"></path><path d="M665.127,654.704C707.63,655.198,742.79,625.341,763.974,588.49C785.08,551.775,792.984,506.495,771.206,470.175C749.924,434.68,706.507,424.337,665.127,423.633C622.12,422.901,574.294,429.311,552.605,466.455C530.795,503.806,547.989,549.113,570.18,586.238C591.637,622.135,623.309,654.218,665.127,654.704" fill="rgba(28, 83, 142, 0.4)" class="triangle-float1"></path><path d="M559.055,271.427C575.647,270.984,589.756,261.366,598.88,247.501C609.228,231.775,617.967,212.229,608.847,195.761C599.549,178.971,578.231,174.78,559.055,175.589C541.458,176.331,524.981,184.499,516.04,199.674C506.961,215.083,506.175,234.389,515.371,249.729C524.331,264.675,541.635,271.892,559.055,271.427" fill="rgba(28, 83, 142, 0.4)" class="triangle-float1"></path><path d="M756.715,539.19C815.063,541.403,865.794,500.127,892.472,448.188C917.002,400.432,906.852,345.118,880.397,298.4C853.474,250.856,811.327,210.134,756.715,208.446C699.515,206.678,645.336,239.494,619.042,290.323C594.523,337.722,611.863,391.828,637.695,438.524C664.653,487.255,701.064,537.079,756.715,539.19" fill="rgba(28, 83, 142, 0.4)" class="triangle-float1"></path><path d="M759.6795635009715 264.60887730738136L762.5844812227409 431.0315021280557 929.0071060434153 428.12658440628627 926.1021883216458 261.7039595856119z" fill="rgba(28, 83, 142, 0.4)" class="triangle-float3"></path><path d="M1478.096,640.307C1521.24,641.09,1563.061,620.698,1584.573,583.291C1606.026,545.986,1602.021,499.956,1580.108,462.919C1558.615,426.592,1520.304,403.022,1478.096,403.327C1436.395,403.629,1399.187,428.106,1378.607,464.376C1358.301,500.163,1357.855,543.728,1378.109,579.544C1398.685,615.93,1436.302,639.548,1478.096,640.307" fill="rgba(28, 83, 142, 0.4)" class="triangle-float1"></path><path d="M15.938,582.896C37.267,583.685,61.338,583.075,73.001,565.199C85.432,546.146,81.068,520.901,68.945,501.65C57.614,483.657,37.193,475.166,15.938,474.587C-6.57,473.973,-31.036,479.134,-42.322,498.617C-53.627,518.134,-47.076,542.677,-34.25,561.23C-23.144,577.295,-3.579,582.174,15.938,582.896" fill="rgba(28, 83, 142, 0.4)" class="triangle-float3"></path><path d="M339.75378817329613 378.63254262583825L420.8368600204544 423.57762327031315 447.71294506358765 279.48047517733835z" fill="rgba(28, 83, 142, 0.4)" class="triangle-float3"></path><path d="M998.655,427.924C1055.247,426.049,1095.607,378.189,1121.566,327.867C1145.075,282.295,1149.796,228.854,1124.301,184.362C1098.667,139.628,1050.195,114.724,998.655,113.376C944.451,111.958,889.586,131.35,861.083,177.477C831.217,225.81,833.426,286.708,860.78,336.506C889.235,388.307,939.585,429.881,998.655,427.924" fill="rgba(28, 83, 142, 0.4)" class="triangle-float3"></path><path d="M449.46700308198655 420.9070529027427L292.88685585221475 415.2897424660312 355.0670867952912 537.3253169496495z" fill="rgba(28, 83, 142, 0.4)" class="triangle-float2"></path><path d="M675.7929492339576 374.7685635411168L798.52316875461 275.38359138277445 576.4079770756152 252.03834402046448z" fill="rgba(28, 83, 142, 0.4)" class="triangle-float3"></path><path d="M1443.74262153347 531.3322181161645L1427.3249978529036 375.1289629469819 1271.121742683721 391.5465866275482 1287.5393663642872 547.7498417967308z" fill="rgba(28, 83, 142, 0.4)" class="triangle-float1"></path><path d="M8.92477184180326 135.61560088729277L148.86117041025474 181.0836930020809 54.3928639565914-4.320797681158723z" fill="rgba(28, 83, 142, 0.4)" class="triangle-float2"></path><path d="M1422.5372954893098 382.82798092217774L1304.5257410885497 386.9490352107696 1308.6467953771414 504.96058961152977 1426.6583497779015 500.839535322938z" fill="rgba(28, 83, 142, 0.4)" class="triangle-float2"></path><path d="M316.33733974555946 206.9511797328878L299.60163070959993 144.49266330999728 214.2817105932439 200.82548507538186z" fill="rgba(28, 83, 142, 0.4)" class="triangle-float1"></path><path d="M376.865,591.862C432.506,596.616,493.421,579.083,520.522,530.256C547.093,482.383,523.542,425.833,494.925,379.154C467.953,335.158,428.47,295.681,376.865,295.924C325.585,296.165,283.673,334.402,260.714,380.256C240.085,421.457,248.072,468.482,270.243,508.874C293.47,551.189,328.769,587.753,376.865,591.862" fill="rgba(28, 83, 142, 0.4)" class="triangle-float1"></path></g><defs><mask id="SvgjsMask1018"><rect width="1440" height="560" fill="#ffffff"></rect></mask><style>
                @keyframes float1 {
                    0%{transform: translate(0, 0)}
                    50%{transform: translate(-10px, 0)}
                    100%{transform: translate(0, 0)}
                }

                .triangle-float1 {
                    animation: float1 5s infinite;
                }

                @keyframes float2 {
                    0%{transform: translate(0, 0)}
                    50%{transform: translate(-5px, -5px)}
                    100%{transform: translate(0, 0)}
                }

                .triangle-float2 {
                    animation: float2 4s infinite;
                }

                @keyframes float3 {
                    0%{transform: translate(0, 0)}
                    50%{transform: translate(0, -10px)}
                    100%{transform: translate(0, 0)}
                }

                .triangle-float3 {
                    animation: float3 6s infinite;
                }
            </style></defs></svg>